<svg width="16" height="16" viewBox="0 0 16 16" fill="none" xmlns="http://www.w3.org/2000/svg">
<path fill-rule="evenodd" clip-rule="evenodd" d="M0.598877 7.70056C0.598877 3.44754 4.04642 0 8.29944 0C12.5525 0 16 3.44754 16 7.70056C16 11.9536 12.5525 15.4011 8.29944 15.4011C4.04642 15.4011 0.598877 11.9536 0.598877 7.70056ZM8.29944 1.54011C6.66559 1.54011 5.09865 2.18916 3.94334 3.34447C2.78803 4.49977 2.13899 6.06671 2.13899 7.70056C2.13899 9.33441 2.78803 10.9013 3.94334 12.0567C5.09865 13.212 6.66559 13.861 8.29944 13.861C9.93329 13.861 11.5002 13.212 12.6555 12.0567C13.8108 10.9013 14.4599 9.33441 14.4599 7.70056C14.4599 6.06671 13.8108 4.49977 12.6555 3.34447C11.5002 2.18916 9.93329 1.54011 8.29944 1.54011Z" fill="#4285F4"/>
<path fill-rule="evenodd" clip-rule="evenodd" d="M9.06953 3.85038C9.06953 3.64615 8.9884 3.45028 8.84399 3.30587C8.69957 3.16145 8.50371 3.08032 8.29947 3.08032C8.09524 3.08032 7.89938 3.16145 7.75496 3.30587C7.61055 3.45028 7.52942 3.64615 7.52942 3.85038V6.9306H4.44919C4.24496 6.9306 4.0491 7.01173 3.90468 7.15615C3.76027 7.30056 3.67914 7.49643 3.67914 7.70066C3.67914 7.90489 3.76027 8.10076 3.90468 8.24517C4.0491 8.38958 4.24496 8.47071 4.44919 8.47071H7.52942V11.5509C7.52942 11.7552 7.61055 11.951 7.75496 12.0955C7.89938 12.2399 8.09524 12.321 8.29947 12.321C8.50371 12.321 8.69957 12.2399 8.84399 12.0955C8.9884 11.951 9.06953 11.7552 9.06953 11.5509V8.47071H12.1498C12.354 8.47071 12.5499 8.38958 12.6943 8.24517C12.8387 8.10076 12.9198 7.90489 12.9198 7.70066C12.9198 7.49643 12.8387 7.30056 12.6943 7.15615C12.5499 7.01173 12.354 6.9306 12.1498 6.9306H9.06953V3.85038Z" fill="#4285F4"/>
</svg>
