<svg width="9" height="10" viewBox="0 0 9 10" fill="none" xmlns="http://www.w3.org/2000/svg">
<path d="M8.36971 2.01382C8.44137 1.94467 8.49855 1.86194 8.5379 1.77045C8.57725 1.67897 8.59798 1.58056 8.59889 1.48098C8.5998 1.3814 8.58088 1.28263 8.54321 1.19044C8.50554 1.09825 8.44989 1.01448 8.37951 0.944031C8.30912 0.873579 8.22541 0.81785 8.13325 0.780095C8.0411 0.742341 7.94235 0.723319 7.84276 0.724137C7.74318 0.724955 7.64476 0.745598 7.55323 0.784861C7.46171 0.824124 7.37893 0.88122 7.30971 0.95282L4.30371 3.95782L1.29871 0.95282C1.23005 0.879133 1.14725 0.820031 1.05525 0.779039C0.963247 0.738047 0.863934 0.716005 0.763231 0.714228C0.662528 0.712451 0.562499 0.730976 0.469111 0.768697C0.375723 0.806418 0.290889 0.862563 0.21967 0.933782C0.148451 1.005 0.0923068 1.08983 0.0545858 1.18322C0.0168648 1.27661 -0.00166006 1.37664 0.00011672 1.47734C0.0018935 1.57805 0.0239355 1.67736 0.0649275 1.76936C0.105919 1.86136 0.165022 1.94416 0.238708 2.01282L3.24171 5.01882L0.236709 8.02382C0.104229 8.16599 0.0321051 8.35404 0.0355333 8.54834C0.0389615 8.74264 0.117674 8.92803 0.255087 9.06544C0.3925 9.20285 0.577885 9.28157 0.772186 9.28499C0.966487 9.28842 1.15453 9.2163 1.29671 9.08382L4.30371 6.07882L7.30871 9.08482C7.45088 9.2173 7.63893 9.28942 7.83323 9.286C8.02753 9.28257 8.21292 9.20386 8.35033 9.06644C8.48774 8.92903 8.56645 8.74364 8.56988 8.54934C8.57331 8.35504 8.50119 8.16699 8.36871 8.02482L5.36571 5.01882L8.36971 2.01382Z" fill="#202020"/>
</svg>
