<svg width="26" height="29" viewBox="0 0 26 29" fill="none" xmlns="http://www.w3.org/2000/svg">
<path d="M3.1125 1.15007C2.95037 1.05346 2.76568 1.0017 2.5772 1.00004C2.38873 0.998387 2.20317 1.0469 2.03939 1.14065C1.8756 1.23441 1.73943 1.37006 1.64469 1.53383C1.54995 1.69761 1.50003 1.88366 1.5 2.0731V26.9269C1.50003 27.1163 1.54995 27.3024 1.64469 27.4662C1.73943 27.6299 1.8756 27.7656 2.03939 27.8593C2.20317 27.9531 2.38873 28.0016 2.5772 28C2.76568 27.9983 2.95037 27.9465 3.1125 27.8499L23.9771 15.423C24.1364 15.328 24.2684 15.1929 24.3601 15.0311C24.4518 14.8693 24.5 14.6862 24.5 14.5C24.5 14.3138 24.4518 14.1307 24.3601 13.9689C24.2684 13.8071 24.1364 13.672 23.9771 13.577L3.1125 1.15007Z" fill="#4285F4" stroke="#4285F4" stroke-width="1.5" stroke-linecap="round" stroke-linejoin="round"/>
</svg>
