<svg width="22" height="23" viewBox="0 0 22 23" fill="none" xmlns="http://www.w3.org/2000/svg">
<path d="M13.0214 21.0468H8.56657L7.95292 18.2848C7.2226 17.9993 6.53961 17.605 5.92707 17.1154L3.22743 17.9652L1 14.1073L3.08487 12.1939C2.96819 11.4187 2.96819 10.6304 3.08487 9.85514L1 7.94066L3.22743 4.08276L5.92707 4.93252C6.53989 4.44246 7.22326 4.04783 7.95403 3.76201L8.56657 1H13.0214L13.6351 3.76201C14.3654 4.04759 15.0484 4.44183 15.6609 4.93141L18.3606 4.08165L20.588 7.93955L18.5031 9.85291C18.6199 10.6281 18.6199 11.4165 18.5031 12.1917L20.588 14.1051L18.3606 17.963L15.6609 17.1132C15.0485 17.6036 14.3655 17.9986 13.6351 18.2848L13.0214 21.0468Z" stroke="black" stroke-width="2" stroke-linecap="round" stroke-linejoin="round"/>
<path d="M10.794 14.3644C12.6393 14.3644 14.1352 12.8685 14.1352 11.0233C14.1352 9.17801 12.6393 7.68213 10.794 7.68213C8.94876 7.68213 7.45288 9.17801 7.45288 11.0233C7.45288 12.8685 8.94876 14.3644 10.794 14.3644Z" stroke="black" stroke-width="2"/>
</svg>
